<svg height="496pt" viewBox="0 0 496 496" width="496pt" xmlns="http://www.w3.org/2000/svg" xmlns:xlink="http://www.w3.org/1999/xlink"><linearGradient id="a" gradientUnits="userSpaceOnUse" x1="248" x2="248" y1="496" y2="0"><stop offset="0" stop-color="#9f2fff"/><stop offset="1" stop-color="#0bb1d3"/></linearGradient><path d="m475.871094 205.257812c3.832031-13.578124.21875-28.25-10.015625-38.480468l-.589844-.601563c-10.273437-10.265625-24.96875-13.894531-38.523437-10.054687-5.582032-9.960938-15.230469-16.898438-26.734376-19.210938v-136.910156h-384.007812v209.472656c-9.289062 3.3125-16 12.113282-16 22.527344v16c0 10.414062 6.710938 19.214844 16 22.527344v225.472656h384v-84.6875l32 32v-118.34375c12.039062 1.679688 24.457031-2.34375 33.816406-11.710938 10.261719-10.257812 13.886719-24.9375 10.054688-38.515624 12.304687-6.910157 20.128906-19.964844 20.128906-35.132813 0-14.511719-7.816406-27.457031-20.128906-34.351563zm-21.960938-27.800781.59375.597657c7.328125 7.320312 8.9375 18.457031 4.015625 27.707031l-1.679687 3.160156c-7.097656-14.738281-19.03125-26.675781-33.769532-33.761719l3.152344-1.679687c9.28125-4.921875 20.410156-3.3125 27.6875 3.976562zm-96.140625 129.0625c-9.265625 4.921875-20.394531 3.304688-27.671875-3.976562l-.59375-.597657c-7.328125-7.320312-8.9375-18.457031-4.015625-27.707031l1.679688-3.160156c7.097656 14.738281 19.03125 26.675781 33.769531 33.761719zm-53.769531-66.910156c0-10.363281 6.734375-19.378906 16.753906-22.449219l3.398438-1.039062c-2.640625 7.488281-4.152344 15.503906-4.152344 23.878906s1.511719 16.390625 4.152344 23.871094l-3.398438-1.039063c-10.019531-3.0625-16.753906-12.078125-16.753906-23.222656zm23.152344-30.6875-1.679688-3.160156c-4.921875-9.25-3.304687-20.386719 4.574219-28.265625 7.328125-7.3125 18.464844-8.929688 27.714844-4.015625l3.148437 1.679687c-14.726562 7.085938-26.664062 19.023438-33.757812 33.761719zm64.847656 87.078125c-30.878906 0-56-25.128906-56-56s25.121094-56 56-56 56 25.128906 56 56-25.121094 56-56 56zm23.871094 11.847656-1.039063 3.390625c-3.0625 10.027344-12.078125 16.761719-23.222656 16.761719-10.351563 0-19.371094-6.734375-22.441406-16.761719l-1.039063-3.390625c7.488282 2.640625 15.496094 4.152344 23.871094 4.152344s16.382812-1.511719 23.871094-4.152344zm-1.039063-139.09375 1.039063 3.398438c-7.488282-2.640625-15.496094-4.152344-23.871094-4.152344s-16.382812 1.511719-23.871094 4.152344l1.039063-3.398438c3.0625-10.019531 12.078125-16.753906 23.222656-16.753906 10.363281 0 19.378906 6.734375 22.441406 16.753906zm-30.832031-152.753906v120.816406c-11.335938 2.214844-21.089844 9.207032-26.742188 19.3125-13.578124-3.839844-28.347656-.128906-39.074218 10.605469-10.261719 10.257813-13.886719 24.9375-10.054688 38.511719-1.472656.824218-2.863281 1.753906-4.199218 2.746094h-271.929688v-191.992188zm-368 216c0-4.414062 3.59375-8 8-8h267.335938c-2.144532 5-3.335938 10.527344-3.335938 16.390625 0 5.511719 1.136719 10.792969 3.207031 15.609375h-267.207031c-4.40625 0-8-3.585938-8-8zm16 248v-208h271.902344c1.34375.992188 2.746094 1.921875 4.21875 2.742188-3.832032 13.578124-.21875 28.25 10.015625 38.480468l.589843.601563c8.953126 8.945312 21.265626 12.832031 33.265626 11.152343v118.335938l32-32v68.6875zm360-99.3125-24 24v-68.640625c6.753906 5.03125 15.167969 7.953125 24.390625 7.953125 8.785156 0 16.96875-2.902344 23.609375-7.886719v68.574219zm61.953125-78.183594c-7.3125 7.320313-18.464844 8.9375-27.714844 4.015625l-3.148437-1.679687c14.734375-7.097656 26.671875-19.023438 33.765625-33.761719l1.679687 3.160156c4.90625 9.257813 3.296875 20.386719-4.582031 28.265625zm9.292969-39.671875-3.398438 1.039063c2.640625-7.480469 4.152344-15.496094 4.152344-23.871094s-1.511719-16.390625-4.152344-23.871094l3.398438 1.039063c10.019531 3.0625 16.753906 12.078125 16.753906 23.222656 0 10.363281-6.734375 19.378906-16.753906 22.441406zm-71.246094-62.832031c-22.054688 0-40 17.945312-40 40s17.945312 40 40 40 40-17.945312 40-40-17.945312-40-40-40zm0 64c-13.230469 0-24-10.769531-24-24s10.769531-24 24-24 24 10.769531 24 24-10.769531 24-24 24zm-216-232h-128v48h128zm-16 32h-96v-16h96zm208-16h-176v-16h176zm0 32h-176v-16h176zm-120 32h-200v-16h200zm0 32h-200v-16h200zm0 32h-200v-16h200zm16 144c-39.695312 0-72 32.296875-72 72s32.304688 72 72 72 72-32.296875 72-72-32.304688-72-72-72zm0 128c-30.878906 0-56-25.128906-56-56s25.121094-56 56-56 56 25.128906 56 56-25.121094 56-56 56zm-216 0h96v16h-96zm0-32h128v16h-128zm0-32h128v16h-128zm0-32h128v16h-128zm0-32h128v16h-128zm16-16h-16v-16h16zm16-16h96v16h-96zm0 0" fill="url(#a)"/></svg>